<svg xmlns="http://www.w3.org/2000/svg" xmlns:xlink="http://www.w3.org/1999/xlink" width="600" height="400" viewBox="0 0 2400 1600">
<defs>
  <clipPath id="clip280">
    <rect x="0" y="0" width="2400" height="1600"></rect>
  </clipPath>
</defs>
<path clip-path="url(#clip280)" d="M0 1600 L2400 1600 L2400 0 L0 0  Z" fill="#ffffff" fill-rule="evenodd" fill-opacity="1"></path>
<defs>
  <clipPath id="clip281">
    <rect x="480" y="0" width="1681" height="1600"></rect>
  </clipPath>
</defs>
<path clip-path="url(#clip280)" d="M212.459 1423.18 L2352.76 1423.18 L2352.76 123.472 L212.459 123.472  Z" fill="#ffffff" fill-rule="evenodd" fill-opacity="1"></path>
<defs>
  <clipPath id="clip282">
    <rect x="212" y="123" width="2141" height="1301"></rect>
  </clipPath>
</defs>
<polyline clip-path="url(#clip282)" style="stroke:#000000; stroke-linecap:round; stroke-linejoin:round; stroke-width:2; stroke-opacity:0.1; fill:none" points="262.887,1423.18 262.887,123.472 "></polyline>
<polyline clip-path="url(#clip282)" style="stroke:#000000; stroke-linecap:round; stroke-linejoin:round; stroke-width:2; stroke-opacity:0.1; fill:none" points="770.211,1423.18 770.211,123.472 "></polyline>
<polyline clip-path="url(#clip282)" style="stroke:#000000; stroke-linecap:round; stroke-linejoin:round; stroke-width:2; stroke-opacity:0.1; fill:none" points="1277.53,1423.18 1277.53,123.472 "></polyline>
<polyline clip-path="url(#clip282)" style="stroke:#000000; stroke-linecap:round; stroke-linejoin:round; stroke-width:2; stroke-opacity:0.1; fill:none" points="1784.86,1423.18 1784.86,123.472 "></polyline>
<polyline clip-path="url(#clip282)" style="stroke:#000000; stroke-linecap:round; stroke-linejoin:round; stroke-width:2; stroke-opacity:0.1; fill:none" points="2292.18,1423.18 2292.18,123.472 "></polyline>
<polyline clip-path="url(#clip282)" style="stroke:#000000; stroke-linecap:round; stroke-linejoin:round; stroke-width:2; stroke-opacity:0.1; fill:none" points="212.459,1294.94 2352.76,1294.94 "></polyline>
<polyline clip-path="url(#clip282)" style="stroke:#000000; stroke-linecap:round; stroke-linejoin:round; stroke-width:2; stroke-opacity:0.1; fill:none" points="212.459,991.508 2352.76,991.508 "></polyline>
<polyline clip-path="url(#clip282)" style="stroke:#000000; stroke-linecap:round; stroke-linejoin:round; stroke-width:2; stroke-opacity:0.1; fill:none" points="212.459,688.077 2352.76,688.077 "></polyline>
<polyline clip-path="url(#clip282)" style="stroke:#000000; stroke-linecap:round; stroke-linejoin:round; stroke-width:2; stroke-opacity:0.1; fill:none" points="212.459,384.646 2352.76,384.646 "></polyline>
<polyline clip-path="url(#clip280)" style="stroke:#000000; stroke-linecap:round; stroke-linejoin:round; stroke-width:4; stroke-opacity:1; fill:none" points="212.459,1423.18 2352.76,1423.18 "></polyline>
<polyline clip-path="url(#clip280)" style="stroke:#000000; stroke-linecap:round; stroke-linejoin:round; stroke-width:4; stroke-opacity:1; fill:none" points="262.887,1423.18 262.887,1404.28 "></polyline>
<polyline clip-path="url(#clip280)" style="stroke:#000000; stroke-linecap:round; stroke-linejoin:round; stroke-width:4; stroke-opacity:1; fill:none" points="770.211,1423.18 770.211,1404.28 "></polyline>
<polyline clip-path="url(#clip280)" style="stroke:#000000; stroke-linecap:round; stroke-linejoin:round; stroke-width:4; stroke-opacity:1; fill:none" points="1277.53,1423.18 1277.53,1404.28 "></polyline>
<polyline clip-path="url(#clip280)" style="stroke:#000000; stroke-linecap:round; stroke-linejoin:round; stroke-width:4; stroke-opacity:1; fill:none" points="1784.86,1423.18 1784.86,1404.28 "></polyline>
<polyline clip-path="url(#clip280)" style="stroke:#000000; stroke-linecap:round; stroke-linejoin:round; stroke-width:4; stroke-opacity:1; fill:none" points="2292.18,1423.18 2292.18,1404.28 "></polyline>
<path clip-path="url(#clip280)" d="M262.887 1454.1 Q259.276 1454.1 257.447 1457.66 Q255.642 1461.2 255.642 1468.33 Q255.642 1475.44 257.447 1479.01 Q259.276 1482.55 262.887 1482.55 Q266.521 1482.55 268.327 1479.01 Q270.155 1475.44 270.155 1468.33 Q270.155 1461.2 268.327 1457.66 Q266.521 1454.1 262.887 1454.1 M262.887 1450.39 Q268.697 1450.39 271.753 1455 Q274.831 1459.58 274.831 1468.33 Q274.831 1477.06 271.753 1481.67 Q268.697 1486.25 262.887 1486.25 Q257.077 1486.25 253.998 1481.67 Q250.942 1477.06 250.942 1468.33 Q250.942 1459.58 253.998 1455 Q257.077 1450.39 262.887 1450.39 Z" fill="#000000" fill-rule="nonzero" fill-opacity="1"></path><path clip-path="url(#clip280)" d="M744.91 1451.02 L763.266 1451.02 L763.266 1454.96 L749.192 1454.96 L749.192 1463.43 Q750.211 1463.08 751.229 1462.92 Q752.248 1462.73 753.266 1462.73 Q759.053 1462.73 762.433 1465.9 Q765.812 1469.08 765.812 1474.49 Q765.812 1480.07 762.34 1483.17 Q758.868 1486.25 752.549 1486.25 Q750.373 1486.25 748.104 1485.88 Q745.859 1485.51 743.451 1484.77 L743.451 1480.07 Q745.535 1481.2 747.757 1481.76 Q749.979 1482.32 752.456 1482.32 Q756.461 1482.32 758.799 1480.21 Q761.136 1478.1 761.136 1474.49 Q761.136 1470.88 758.799 1468.77 Q756.461 1466.67 752.456 1466.67 Q750.581 1466.67 748.706 1467.08 Q746.854 1467.5 744.91 1468.38 L744.91 1451.02 Z" fill="#000000" fill-rule="nonzero" fill-opacity="1"></path><path clip-path="url(#clip280)" d="M785.025 1454.1 Q781.414 1454.1 779.585 1457.66 Q777.78 1461.2 777.78 1468.33 Q777.78 1475.44 779.585 1479.01 Q781.414 1482.55 785.025 1482.55 Q788.659 1482.55 790.465 1479.01 Q792.294 1475.44 792.294 1468.33 Q792.294 1461.2 790.465 1457.66 Q788.659 1454.1 785.025 1454.1 M785.025 1450.39 Q790.835 1450.39 793.891 1455 Q796.97 1459.58 796.97 1468.33 Q796.97 1477.06 793.891 1481.67 Q790.835 1486.25 785.025 1486.25 Q779.215 1486.25 776.136 1481.67 Q773.081 1477.06 773.081 1468.33 Q773.081 1459.58 776.136 1455 Q779.215 1450.39 785.025 1450.39 Z" fill="#000000" fill-rule="nonzero" fill-opacity="1"></path><path clip-path="url(#clip280)" d="M1237.14 1481.64 L1244.78 1481.64 L1244.78 1455.28 L1236.47 1456.95 L1236.47 1452.69 L1244.73 1451.02 L1249.41 1451.02 L1249.41 1481.64 L1257.05 1481.64 L1257.05 1485.58 L1237.14 1485.58 L1237.14 1481.64 Z" fill="#000000" fill-rule="nonzero" fill-opacity="1"></path><path clip-path="url(#clip280)" d="M1276.49 1454.1 Q1272.88 1454.1 1271.05 1457.66 Q1269.25 1461.2 1269.25 1468.33 Q1269.25 1475.44 1271.05 1479.01 Q1272.88 1482.55 1276.49 1482.55 Q1280.13 1482.55 1281.93 1479.01 Q1283.76 1475.44 1283.76 1468.33 Q1283.76 1461.2 1281.93 1457.66 Q1280.13 1454.1 1276.49 1454.1 M1276.49 1450.39 Q1282.3 1450.39 1285.36 1455 Q1288.44 1459.58 1288.44 1468.33 Q1288.44 1477.06 1285.36 1481.67 Q1282.3 1486.25 1276.49 1486.25 Q1270.68 1486.25 1267.6 1481.67 Q1264.55 1477.06 1264.55 1468.33 Q1264.55 1459.58 1267.6 1455 Q1270.68 1450.39 1276.49 1450.39 Z" fill="#000000" fill-rule="nonzero" fill-opacity="1"></path><path clip-path="url(#clip280)" d="M1306.65 1454.1 Q1303.04 1454.1 1301.21 1457.66 Q1299.41 1461.2 1299.41 1468.33 Q1299.41 1475.44 1301.21 1479.01 Q1303.04 1482.55 1306.65 1482.55 Q1310.29 1482.55 1312.09 1479.01 Q1313.92 1475.44 1313.92 1468.33 Q1313.92 1461.2 1312.09 1457.66 Q1310.29 1454.1 1306.65 1454.1 M1306.65 1450.39 Q1312.46 1450.39 1315.52 1455 Q1318.6 1459.58 1318.6 1468.33 Q1318.6 1477.06 1315.52 1481.67 Q1312.46 1486.25 1306.65 1486.25 Q1300.84 1486.25 1297.77 1481.67 Q1294.71 1477.06 1294.71 1468.33 Q1294.71 1459.58 1297.77 1455 Q1300.84 1450.39 1306.65 1450.39 Z" fill="#000000" fill-rule="nonzero" fill-opacity="1"></path><path clip-path="url(#clip280)" d="M1744.46 1481.64 L1752.1 1481.64 L1752.1 1455.28 L1743.79 1456.95 L1743.79 1452.69 L1752.06 1451.02 L1756.73 1451.02 L1756.73 1481.64 L1764.37 1481.64 L1764.37 1485.58 L1744.46 1485.58 L1744.46 1481.64 Z" fill="#000000" fill-rule="nonzero" fill-opacity="1"></path><path clip-path="url(#clip280)" d="M1773.86 1451.02 L1792.22 1451.02 L1792.22 1454.96 L1778.14 1454.96 L1778.14 1463.43 Q1779.16 1463.08 1780.18 1462.92 Q1781.2 1462.73 1782.22 1462.73 Q1788.01 1462.73 1791.39 1465.9 Q1794.77 1469.08 1794.77 1474.49 Q1794.77 1480.07 1791.29 1483.17 Q1787.82 1486.25 1781.5 1486.25 Q1779.33 1486.25 1777.06 1485.88 Q1774.81 1485.51 1772.4 1484.77 L1772.4 1480.07 Q1774.49 1481.2 1776.71 1481.76 Q1778.93 1482.32 1781.41 1482.32 Q1785.41 1482.32 1787.75 1480.21 Q1790.09 1478.1 1790.09 1474.49 Q1790.09 1470.88 1787.75 1468.77 Q1785.41 1466.67 1781.41 1466.67 Q1779.53 1466.67 1777.66 1467.08 Q1775.81 1467.5 1773.86 1468.38 L1773.86 1451.02 Z" fill="#000000" fill-rule="nonzero" fill-opacity="1"></path><path clip-path="url(#clip280)" d="M1813.98 1454.1 Q1810.37 1454.1 1808.54 1457.66 Q1806.73 1461.2 1806.73 1468.33 Q1806.73 1475.44 1808.54 1479.01 Q1810.37 1482.55 1813.98 1482.55 Q1817.61 1482.55 1819.42 1479.01 Q1821.25 1475.44 1821.25 1468.33 Q1821.25 1461.2 1819.42 1457.66 Q1817.61 1454.1 1813.98 1454.1 M1813.98 1450.39 Q1819.79 1450.39 1822.84 1455 Q1825.92 1459.58 1825.92 1468.33 Q1825.92 1477.06 1822.84 1481.67 Q1819.79 1486.25 1813.98 1486.25 Q1808.17 1486.25 1805.09 1481.67 Q1802.03 1477.06 1802.03 1468.33 Q1802.03 1459.58 1805.09 1455 Q1808.17 1450.39 1813.98 1450.39 Z" fill="#000000" fill-rule="nonzero" fill-opacity="1"></path><path clip-path="url(#clip280)" d="M2255.87 1481.64 L2272.19 1481.64 L2272.19 1485.58 L2250.25 1485.58 L2250.25 1481.64 Q2252.91 1478.89 2257.49 1474.26 Q2262.1 1469.61 2263.28 1468.27 Q2265.53 1465.74 2266.41 1464.01 Q2267.31 1462.25 2267.31 1460.56 Q2267.31 1457.8 2265.36 1456.07 Q2263.44 1454.33 2260.34 1454.33 Q2258.14 1454.33 2255.69 1455.09 Q2253.26 1455.86 2250.48 1457.41 L2250.48 1452.69 Q2253.3 1451.55 2255.76 1450.97 Q2258.21 1450.39 2260.25 1450.39 Q2265.62 1450.39 2268.81 1453.08 Q2272.01 1455.77 2272.01 1460.26 Q2272.01 1462.39 2271.2 1464.31 Q2270.41 1466.2 2268.3 1468.8 Q2267.73 1469.47 2264.62 1472.69 Q2261.52 1475.88 2255.87 1481.64 Z" fill="#000000" fill-rule="nonzero" fill-opacity="1"></path><path clip-path="url(#clip280)" d="M2292.01 1454.1 Q2288.4 1454.1 2286.57 1457.66 Q2284.76 1461.2 2284.76 1468.33 Q2284.76 1475.44 2286.57 1479.01 Q2288.4 1482.55 2292.01 1482.55 Q2295.64 1482.55 2297.45 1479.01 Q2299.28 1475.44 2299.28 1468.33 Q2299.28 1461.2 2297.45 1457.66 Q2295.64 1454.1 2292.01 1454.1 M2292.01 1450.39 Q2297.82 1450.39 2300.87 1455 Q2303.95 1459.58 2303.95 1468.33 Q2303.95 1477.06 2300.87 1481.67 Q2297.82 1486.25 2292.01 1486.25 Q2286.2 1486.25 2283.12 1481.67 Q2280.06 1477.06 2280.06 1468.33 Q2280.06 1459.58 2283.12 1455 Q2286.2 1450.39 2292.01 1450.39 Z" fill="#000000" fill-rule="nonzero" fill-opacity="1"></path><path clip-path="url(#clip280)" d="M2322.17 1454.1 Q2318.56 1454.1 2316.73 1457.66 Q2314.92 1461.2 2314.92 1468.33 Q2314.92 1475.44 2316.73 1479.01 Q2318.56 1482.55 2322.17 1482.55 Q2325.8 1482.55 2327.61 1479.01 Q2329.44 1475.44 2329.44 1468.33 Q2329.44 1461.2 2327.61 1457.66 Q2325.8 1454.1 2322.17 1454.1 M2322.17 1450.39 Q2327.98 1450.39 2331.04 1455 Q2334.11 1459.58 2334.11 1468.33 Q2334.11 1477.06 2331.04 1481.67 Q2327.98 1486.25 2322.17 1486.25 Q2316.36 1486.25 2313.28 1481.67 Q2310.23 1477.06 2310.23 1468.33 Q2310.23 1459.58 2313.28 1455 Q2316.36 1450.39 2322.17 1450.39 Z" fill="#000000" fill-rule="nonzero" fill-opacity="1"></path><path clip-path="url(#clip280)" d="M1150.76 1532.4 L1156.61 1532.4 L1156.61 1568.04 L1150.76 1568.04 L1150.76 1532.4 M1150.76 1518.52 L1156.61 1518.52 L1156.61 1525.93 L1150.76 1525.93 L1150.76 1518.52 Z" fill="#000000" fill-rule="nonzero" fill-opacity="1"></path><path clip-path="url(#clip280)" d="M1174.66 1522.27 L1174.66 1532.4 L1186.72 1532.4 L1186.72 1536.95 L1174.66 1536.95 L1174.66 1556.3 Q1174.66 1560.66 1175.84 1561.9 Q1177.05 1563.14 1180.71 1563.14 L1186.72 1563.14 L1186.72 1568.04 L1180.71 1568.04 Q1173.93 1568.04 1171.35 1565.53 Q1168.77 1562.98 1168.77 1556.3 L1168.77 1536.95 L1164.48 1536.95 L1164.48 1532.4 L1168.77 1532.4 L1168.77 1522.27 L1174.66 1522.27 Z" fill="#000000" fill-rule="nonzero" fill-opacity="1"></path><path clip-path="url(#clip280)" d="M1224.92 1548.76 L1224.92 1551.62 L1197.99 1551.62 Q1198.37 1557.67 1201.62 1560.85 Q1204.9 1564 1210.72 1564 Q1214.1 1564 1217.25 1563.17 Q1220.43 1562.35 1223.55 1560.69 L1223.55 1566.23 Q1220.4 1567.57 1217.09 1568.27 Q1213.78 1568.97 1210.37 1568.97 Q1201.84 1568.97 1196.85 1564 Q1191.88 1559.04 1191.88 1550.57 Q1191.88 1541.82 1196.59 1536.69 Q1201.33 1531.54 1209.35 1531.54 Q1216.55 1531.54 1220.72 1536.18 Q1224.92 1540.8 1224.92 1548.76 M1219.06 1547.04 Q1219 1542.23 1216.36 1539.37 Q1213.75 1536.5 1209.42 1536.5 Q1204.52 1536.5 1201.56 1539.27 Q1198.63 1542.04 1198.18 1547.07 L1219.06 1547.04 Z" fill="#000000" fill-rule="nonzero" fill-opacity="1"></path><path clip-path="url(#clip280)" d="M1255.19 1537.87 Q1254.2 1537.3 1253.02 1537.04 Q1251.88 1536.76 1250.48 1536.76 Q1245.51 1536.76 1242.84 1540 Q1240.2 1543.22 1240.2 1549.27 L1240.2 1568.04 L1234.31 1568.04 L1234.31 1532.4 L1240.2 1532.4 L1240.2 1537.93 Q1242.04 1534.69 1245 1533.13 Q1247.96 1531.54 1252.2 1531.54 Q1252.8 1531.54 1253.53 1531.63 Q1254.26 1531.7 1255.16 1531.85 L1255.19 1537.87 Z" fill="#000000" fill-rule="nonzero" fill-opacity="1"></path><path clip-path="url(#clip280)" d="M1277.53 1550.12 Q1270.43 1550.12 1267.7 1551.75 Q1264.96 1553.37 1264.96 1557.29 Q1264.96 1560.4 1267 1562.25 Q1269.06 1564.07 1272.6 1564.07 Q1277.47 1564.07 1280.4 1560.63 Q1283.36 1557.16 1283.36 1551.43 L1283.36 1550.12 L1277.53 1550.12 M1289.21 1547.71 L1289.21 1568.04 L1283.36 1568.04 L1283.36 1562.63 Q1281.35 1565.88 1278.36 1567.44 Q1275.37 1568.97 1271.04 1568.97 Q1265.56 1568.97 1262.32 1565.91 Q1259.1 1562.82 1259.1 1557.67 Q1259.1 1551.65 1263.11 1548.6 Q1267.15 1545.54 1275.14 1545.54 L1283.36 1545.54 L1283.36 1544.97 Q1283.36 1540.93 1280.68 1538.73 Q1278.04 1536.5 1273.23 1536.5 Q1270.18 1536.5 1267.28 1537.23 Q1264.39 1537.97 1261.71 1539.43 L1261.71 1534.02 Q1264.93 1532.78 1267.95 1532.17 Q1270.97 1531.54 1273.84 1531.54 Q1281.57 1531.54 1285.39 1535.55 Q1289.21 1539.56 1289.21 1547.71 Z" fill="#000000" fill-rule="nonzero" fill-opacity="1"></path><path clip-path="url(#clip280)" d="M1307.07 1522.27 L1307.07 1532.4 L1319.13 1532.4 L1319.13 1536.95 L1307.07 1536.95 L1307.07 1556.3 Q1307.07 1560.66 1308.25 1561.9 Q1309.45 1563.14 1313.12 1563.14 L1319.13 1563.14 L1319.13 1568.04 L1313.12 1568.04 Q1306.34 1568.04 1303.76 1565.53 Q1301.18 1562.98 1301.18 1556.3 L1301.18 1536.95 L1296.88 1536.95 L1296.88 1532.4 L1301.18 1532.4 L1301.18 1522.27 L1307.07 1522.27 Z" fill="#000000" fill-rule="nonzero" fill-opacity="1"></path><path clip-path="url(#clip280)" d="M1326.83 1532.4 L1332.69 1532.4 L1332.69 1568.04 L1326.83 1568.04 L1326.83 1532.4 M1326.83 1518.52 L1332.69 1518.52 L1332.69 1525.93 L1326.83 1525.93 L1326.83 1518.52 Z" fill="#000000" fill-rule="nonzero" fill-opacity="1"></path><path clip-path="url(#clip280)" d="M1358.76 1536.5 Q1354.05 1536.5 1351.31 1540.19 Q1348.57 1543.85 1348.57 1550.25 Q1348.57 1556.65 1351.28 1560.34 Q1354.01 1564 1358.76 1564 Q1363.44 1564 1366.17 1560.31 Q1368.91 1556.62 1368.91 1550.25 Q1368.91 1543.92 1366.17 1540.23 Q1363.44 1536.5 1358.76 1536.5 M1358.76 1531.54 Q1366.4 1531.54 1370.76 1536.5 Q1375.12 1541.47 1375.12 1550.25 Q1375.12 1559 1370.76 1564 Q1366.4 1568.97 1358.76 1568.97 Q1351.09 1568.97 1346.73 1564 Q1342.4 1559 1342.4 1550.25 Q1342.4 1541.47 1346.73 1536.5 Q1351.09 1531.54 1358.76 1531.54 Z" fill="#000000" fill-rule="nonzero" fill-opacity="1"></path><path clip-path="url(#clip280)" d="M1414.46 1546.53 L1414.46 1568.04 L1408.6 1568.04 L1408.6 1546.72 Q1408.6 1541.66 1406.63 1539.14 Q1404.65 1536.63 1400.71 1536.63 Q1395.96 1536.63 1393.23 1539.65 Q1390.49 1542.68 1390.49 1547.9 L1390.49 1568.04 L1384.6 1568.04 L1384.6 1532.4 L1390.49 1532.4 L1390.49 1537.93 Q1392.59 1534.72 1395.42 1533.13 Q1398.29 1531.54 1402.01 1531.54 Q1408.16 1531.54 1411.31 1535.36 Q1414.46 1539.14 1414.46 1546.53 Z" fill="#000000" fill-rule="nonzero" fill-opacity="1"></path><polyline clip-path="url(#clip280)" style="stroke:#000000; stroke-linecap:round; stroke-linejoin:round; stroke-width:4; stroke-opacity:1; fill:none" points="212.459,1423.18 212.459,123.472 "></polyline>
<polyline clip-path="url(#clip280)" style="stroke:#000000; stroke-linecap:round; stroke-linejoin:round; stroke-width:4; stroke-opacity:1; fill:none" points="212.459,1294.94 231.357,1294.94 "></polyline>
<polyline clip-path="url(#clip280)" style="stroke:#000000; stroke-linecap:round; stroke-linejoin:round; stroke-width:4; stroke-opacity:1; fill:none" points="212.459,991.508 231.357,991.508 "></polyline>
<polyline clip-path="url(#clip280)" style="stroke:#000000; stroke-linecap:round; stroke-linejoin:round; stroke-width:4; stroke-opacity:1; fill:none" points="212.459,688.077 231.357,688.077 "></polyline>
<polyline clip-path="url(#clip280)" style="stroke:#000000; stroke-linecap:round; stroke-linejoin:round; stroke-width:4; stroke-opacity:1; fill:none" points="212.459,384.646 231.357,384.646 "></polyline>
<path clip-path="url(#clip280)" d="M114.584 1295.39 L144.26 1295.39 L144.26 1299.32 L114.584 1299.32 L114.584 1295.39 Z" fill="#000000" fill-rule="nonzero" fill-opacity="1"></path><path clip-path="url(#clip280)" d="M164.931 1293.07 Q161.783 1293.07 159.931 1295.23 Q158.103 1297.38 158.103 1301.13 Q158.103 1304.86 159.931 1307.03 Q161.783 1309.19 164.931 1309.19 Q168.079 1309.19 169.908 1307.03 Q171.76 1304.86 171.76 1301.13 Q171.76 1297.38 169.908 1295.23 Q168.079 1293.07 164.931 1293.07 M174.214 1278.42 L174.214 1282.68 Q172.454 1281.85 170.649 1281.41 Q168.866 1280.97 167.107 1280.97 Q162.477 1280.97 160.024 1284.09 Q157.593 1287.22 157.246 1293.54 Q158.612 1291.52 160.672 1290.46 Q162.732 1289.37 165.209 1289.37 Q170.417 1289.37 173.427 1292.54 Q176.459 1295.69 176.459 1301.13 Q176.459 1306.45 173.311 1309.67 Q170.163 1312.89 164.931 1312.89 Q158.936 1312.89 155.765 1308.31 Q152.593 1303.7 152.593 1294.97 Q152.593 1286.78 156.482 1281.92 Q160.371 1277.03 166.922 1277.03 Q168.681 1277.03 170.464 1277.38 Q172.269 1277.73 174.214 1278.42 Z" fill="#000000" fill-rule="nonzero" fill-opacity="1"></path><path clip-path="url(#clip280)" d="M114.26 991.959 L143.936 991.959 L143.936 995.894 L114.26 995.894 L114.26 991.959 Z" fill="#000000" fill-rule="nonzero" fill-opacity="1"></path><path clip-path="url(#clip280)" d="M166.876 978.302 L155.07 996.751 L166.876 996.751 L166.876 978.302 M165.649 974.228 L171.528 974.228 L171.528 996.751 L176.459 996.751 L176.459 1000.64 L171.528 1000.64 L171.528 1008.79 L166.876 1008.79 L166.876 1000.64 L151.274 1000.64 L151.274 996.126 L165.649 974.228 Z" fill="#000000" fill-rule="nonzero" fill-opacity="1"></path><path clip-path="url(#clip280)" d="M116.343 688.528 L146.019 688.528 L146.019 692.464 L116.343 692.464 L116.343 688.528 Z" fill="#000000" fill-rule="nonzero" fill-opacity="1"></path><path clip-path="url(#clip280)" d="M160.14 701.422 L176.459 701.422 L176.459 705.357 L154.515 705.357 L154.515 701.422 Q157.177 698.667 161.76 694.038 Q166.366 689.385 167.547 688.042 Q169.792 685.519 170.672 683.783 Q171.575 682.024 171.575 680.334 Q171.575 677.579 169.63 675.843 Q167.709 674.107 164.607 674.107 Q162.408 674.107 159.954 674.871 Q157.524 675.635 154.746 677.186 L154.746 672.464 Q157.57 671.329 160.024 670.751 Q162.477 670.172 164.515 670.172 Q169.885 670.172 173.079 672.857 Q176.274 675.542 176.274 680.033 Q176.274 682.163 175.464 684.084 Q174.677 685.982 172.57 688.575 Q171.991 689.246 168.889 692.464 Q165.788 695.658 160.14 701.422 Z" fill="#000000" fill-rule="nonzero" fill-opacity="1"></path><path clip-path="url(#clip280)" d="M164.515 370.445 Q160.903 370.445 159.075 374.01 Q157.269 377.552 157.269 384.681 Q157.269 391.788 159.075 395.352 Q160.903 398.894 164.515 398.894 Q168.149 398.894 169.954 395.352 Q171.783 391.788 171.783 384.681 Q171.783 377.552 169.954 374.01 Q168.149 370.445 164.515 370.445 M164.515 366.741 Q170.325 366.741 173.38 371.348 Q176.459 375.931 176.459 384.681 Q176.459 393.408 173.38 398.014 Q170.325 402.598 164.515 402.598 Q158.704 402.598 155.626 398.014 Q152.57 393.408 152.57 384.681 Q152.57 375.931 155.626 371.348 Q158.704 366.741 164.515 366.741 Z" fill="#000000" fill-rule="nonzero" fill-opacity="1"></path><path clip-path="url(#clip280)" d="M14.479 1013.19 L14.479 1007.33 L64.0042 1007.33 L64.0042 1013.19 L14.479 1013.19 Z" fill="#000000" fill-rule="nonzero" fill-opacity="1"></path><path clip-path="url(#clip280)" d="M32.4621 981.262 Q32.4621 985.972 36.1542 988.71 Q39.8145 991.447 46.212 991.447 Q52.6095 991.447 56.3017 988.741 Q59.9619 986.004 59.9619 981.262 Q59.9619 976.583 56.2698 973.846 Q52.5777 971.108 46.212 971.108 Q39.8781 971.108 36.186 973.846 Q32.4621 976.583 32.4621 981.262 M27.4968 981.262 Q27.4968 973.623 32.4621 969.262 Q37.4273 964.902 46.212 964.902 Q54.9649 964.902 59.9619 969.262 Q64.9272 973.623 64.9272 981.262 Q64.9272 988.932 59.9619 993.293 Q54.9649 997.622 46.212 997.622 Q37.4273 997.622 32.4621 993.293 Q27.4968 988.932 27.4968 981.262 Z" fill="#000000" fill-rule="nonzero" fill-opacity="1"></path><path clip-path="url(#clip280)" d="M45.7664 931.737 Q39.4007 931.737 35.8996 934.378 Q32.3984 936.988 32.3984 941.731 Q32.3984 946.441 35.8996 949.083 Q39.4007 951.693 45.7664 951.693 Q52.1003 951.693 55.6014 949.083 Q59.1026 946.441 59.1026 941.731 Q59.1026 936.988 55.6014 934.378 Q52.1003 931.737 45.7664 931.737 M59.58 925.88 Q68.683 925.88 73.1071 929.922 Q77.5631 933.965 77.5631 942.304 Q77.5631 945.391 77.0857 948.128 Q76.6401 950.866 75.6852 953.444 L69.9879 953.444 Q71.3884 950.866 72.0568 948.351 Q72.7252 945.837 72.7252 943.227 Q72.7252 937.466 69.7015 934.601 Q66.7096 931.737 60.6303 931.737 L57.7339 931.737 Q60.885 933.551 62.4446 936.384 Q64.0042 939.216 64.0042 943.163 Q64.0042 949.72 59.0071 953.73 Q54.01 957.741 45.7664 957.741 Q37.491 957.741 32.4939 953.73 Q27.4968 949.72 27.4968 943.163 Q27.4968 939.216 29.0564 936.384 Q30.616 933.551 33.7671 931.737 L28.3562 931.737 L28.3562 925.88 L59.58 925.88 Z" fill="#000000" fill-rule="nonzero" fill-opacity="1"></path><path clip-path="url(#clip280)" d="M58.5933 911.876 L58.5933 901.372 L22.3406 901.372 L24.6323 912.799 L18.7758 912.799 L16.4842 901.436 L16.4842 895.006 L58.5933 895.006 L58.5933 884.503 L64.0042 884.503 L64.0042 911.876 L58.5933 911.876 Z" fill="#000000" fill-rule="nonzero" fill-opacity="1"></path><path clip-path="url(#clip280)" d="M20.7174 857.767 Q20.7174 862.732 25.6189 865.247 Q30.4887 867.729 40.2919 867.729 Q50.0633 867.729 54.9649 865.247 Q59.8346 862.732 59.8346 857.767 Q59.8346 852.77 54.9649 850.287 Q50.0633 847.773 40.2919 847.773 Q30.4887 847.773 25.6189 850.287 Q20.7174 852.77 20.7174 857.767 M15.6248 857.767 Q15.6248 849.778 21.9587 845.577 Q28.2607 841.344 40.2919 841.344 Q52.2913 841.344 58.6251 845.577 Q64.9272 849.778 64.9272 857.767 Q64.9272 865.756 58.6251 869.989 Q52.2913 874.191 40.2919 874.191 Q28.2607 874.191 21.9587 869.989 Q15.6248 865.756 15.6248 857.767 Z" fill="#000000" fill-rule="nonzero" fill-opacity="1"></path><path clip-path="url(#clip280)" d="M14.5426 816.804 Q21.8632 821.069 29.0246 823.138 Q36.186 825.206 43.5384 825.206 Q50.8908 825.206 58.1159 823.138 Q65.3091 821.037 72.5979 816.804 L72.5979 821.896 Q65.1182 826.671 57.8931 829.058 Q50.668 831.413 43.5384 831.413 Q36.4406 831.413 29.2474 829.058 Q22.0542 826.702 14.5426 821.896 L14.5426 816.804 Z" fill="#000000" fill-rule="nonzero" fill-opacity="1"></path><path clip-path="url(#clip280)" d="M33.8307 784.784 Q33.2578 785.771 33.0032 786.949 Q32.7167 788.094 32.7167 789.495 Q32.7167 794.46 35.9632 797.134 Q39.1779 799.775 45.2253 799.775 L64.0042 799.775 L64.0042 805.664 L28.3562 805.664 L28.3562 799.775 L33.8944 799.775 Q30.6479 797.929 29.0883 794.969 Q27.4968 792.009 27.4968 787.776 Q27.4968 787.171 27.5923 786.439 Q27.656 785.707 27.8151 784.816 L33.8307 784.784 Z" fill="#000000" fill-rule="nonzero" fill-opacity="1"></path><path clip-path="url(#clip280)" d="M44.7161 749.582 L47.5806 749.582 L47.5806 776.509 Q53.6281 776.127 56.8109 772.88 Q59.9619 769.602 59.9619 763.777 Q59.9619 760.404 59.1344 757.253 Q58.3069 754.07 56.6518 750.951 L62.1899 750.951 Q63.5267 754.102 64.227 757.412 Q64.9272 760.722 64.9272 764.128 Q64.9272 772.658 59.9619 777.655 Q54.9967 782.62 46.5303 782.62 Q37.7774 782.62 32.6531 777.909 Q27.4968 773.167 27.4968 765.146 Q27.4968 757.953 32.1438 753.783 Q36.7589 749.582 44.7161 749.582 M42.9973 755.438 Q38.1912 755.502 35.3266 758.144 Q32.4621 760.754 32.4621 765.082 Q32.4621 769.984 35.2312 772.944 Q38.0002 775.872 43.0292 776.318 L42.9973 755.438 Z" fill="#000000" fill-rule="nonzero" fill-opacity="1"></path><path clip-path="url(#clip280)" d="M29.4065 717.244 L34.9447 717.244 Q33.6716 719.727 33.035 722.4 Q32.3984 725.074 32.3984 727.938 Q32.3984 732.299 33.7352 734.495 Q35.072 736.66 37.7456 736.66 Q39.7826 736.66 40.9603 735.1 Q42.1061 733.54 43.1565 728.83 L43.6021 726.824 Q44.9389 720.586 47.3897 717.976 Q49.8086 715.334 54.1691 715.334 Q59.1344 715.334 62.0308 719.281 Q64.9272 723.196 64.9272 730.071 Q64.9272 732.936 64.3543 736.055 Q63.8132 739.142 62.6992 742.58 L56.6518 742.58 Q58.3387 739.333 59.198 736.182 Q60.0256 733.031 60.0256 729.944 Q60.0256 725.806 58.6251 723.578 Q57.1929 721.35 54.6147 721.35 Q52.2276 721.35 50.9545 722.973 Q49.6813 724.565 48.5037 730.007 L48.0262 732.044 Q46.8804 737.487 44.5251 739.906 Q42.138 742.325 38.0002 742.325 Q32.9713 742.325 30.2341 738.76 Q27.4968 735.195 27.4968 728.639 Q27.4968 725.392 27.9743 722.528 Q28.4517 719.663 29.4065 717.244 Z" fill="#000000" fill-rule="nonzero" fill-opacity="1"></path><path clip-path="url(#clip280)" d="M28.3562 706.009 L28.3562 700.152 L64.0042 700.152 L64.0042 706.009 L28.3562 706.009 M14.479 706.009 L14.479 700.152 L21.895 700.152 L21.895 706.009 L14.479 706.009 Z" fill="#000000" fill-rule="nonzero" fill-opacity="1"></path><path clip-path="url(#clip280)" d="M33.7671 664.441 L14.479 664.441 L14.479 658.584 L64.0042 658.584 L64.0042 664.441 L58.657 664.441 Q61.8398 666.287 63.3994 669.119 Q64.9272 671.92 64.9272 675.867 Q64.9272 682.328 59.771 686.402 Q54.6147 690.444 46.212 690.444 Q37.8093 690.444 32.6531 686.402 Q27.4968 682.328 27.4968 675.867 Q27.4968 671.92 29.0564 669.119 Q30.5842 666.287 33.7671 664.441 M46.212 684.397 Q52.6732 684.397 56.3653 681.755 Q60.0256 679.082 60.0256 674.435 Q60.0256 669.788 56.3653 667.114 Q52.6732 664.441 46.212 664.441 Q39.7508 664.441 36.0905 667.114 Q32.3984 669.788 32.3984 674.435 Q32.3984 679.082 36.0905 681.755 Q39.7508 684.397 46.212 684.397 Z" fill="#000000" fill-rule="nonzero" fill-opacity="1"></path><path clip-path="url(#clip280)" d="M49.9359 647.126 L28.3562 647.126 L28.3562 641.269 L49.7131 641.269 Q54.7739 641.269 57.3202 639.296 Q59.8346 637.323 59.8346 633.376 Q59.8346 628.633 56.8109 625.896 Q53.7872 623.127 48.5673 623.127 L28.3562 623.127 L28.3562 617.271 L64.0042 617.271 L64.0042 623.127 L58.5296 623.127 Q61.7762 625.26 63.3676 628.092 Q64.9272 630.893 64.9272 634.617 Q64.9272 640.76 61.1078 643.943 Q57.2883 647.126 49.9359 647.126 M27.4968 632.389 L27.4968 632.389 Z" fill="#000000" fill-rule="nonzero" fill-opacity="1"></path><path clip-path="url(#clip280)" d="M46.0847 589.007 Q46.0847 596.105 47.7079 598.842 Q49.3312 601.579 53.2461 601.579 Q56.3653 601.579 58.2114 599.542 Q60.0256 597.473 60.0256 593.94 Q60.0256 589.071 56.5881 586.142 Q53.1188 583.182 47.3897 583.182 L46.0847 583.182 L46.0847 589.007 M43.6657 577.326 L64.0042 577.326 L64.0042 583.182 L58.5933 583.182 Q61.8398 585.188 63.3994 588.179 Q64.9272 591.171 64.9272 595.5 Q64.9272 600.974 61.8716 604.221 Q58.7843 607.436 53.6281 607.436 Q47.6125 607.436 44.5569 603.425 Q41.5014 599.383 41.5014 591.394 L41.5014 583.182 L40.9285 583.182 Q36.8862 583.182 34.6901 585.856 Q32.4621 588.498 32.4621 593.304 Q32.4621 596.359 33.1941 599.256 Q33.9262 602.152 35.3903 604.826 L29.9795 604.826 Q28.7381 601.611 28.1334 598.587 Q27.4968 595.564 27.4968 592.699 Q27.4968 584.965 31.5072 581.145 Q35.5176 577.326 43.6657 577.326 Z" fill="#000000" fill-rule="nonzero" fill-opacity="1"></path><path clip-path="url(#clip280)" d="M14.479 565.263 L14.479 559.406 L64.0042 559.406 L64.0042 565.263 L14.479 565.263 Z" fill="#000000" fill-rule="nonzero" fill-opacity="1"></path><path clip-path="url(#clip280)" d="M14.5426 548.075 L14.5426 542.983 Q22.0542 538.209 29.2474 535.853 Q36.4406 533.466 43.5384 533.466 Q50.668 533.466 57.8931 535.853 Q65.1182 538.209 72.5979 542.983 L72.5979 548.075 Q65.3091 543.842 58.1159 541.773 Q50.8908 539.673 43.5384 539.673 Q36.186 539.673 29.0246 541.773 Q21.8632 543.842 14.5426 548.075 Z" fill="#000000" fill-rule="nonzero" fill-opacity="1"></path><path clip-path="url(#clip280)" d="M1144.07 44.2197 Q1146.7 45.1109 1149.17 48.0275 Q1151.68 50.9442 1154.19 56.0483 L1162.5 72.576 L1153.71 72.576 L1145.97 57.061 Q1142.97 50.9847 1140.14 48.9997 Q1137.34 47.0148 1132.48 47.0148 L1123.57 47.0148 L1123.57 72.576 L1115.39 72.576 L1115.39 12.096 L1133.86 12.096 Q1144.23 12.096 1149.33 16.4305 Q1154.44 20.7649 1154.44 29.5149 Q1154.44 35.2267 1151.76 38.994 Q1149.13 42.7613 1144.07 44.2197 M1123.57 18.8205 L1123.57 40.2903 L1133.86 40.2903 Q1139.77 40.2903 1142.77 37.5762 Q1145.81 34.8216 1145.81 29.5149 Q1145.81 24.2082 1142.77 21.5346 Q1139.77 18.8205 1133.86 18.8205 L1123.57 18.8205 Z" fill="#000000" fill-rule="nonzero" fill-opacity="1"></path><path clip-path="url(#clip280)" d="M1207.79 48.0275 L1207.79 51.6733 L1173.52 51.6733 Q1174 59.3701 1178.13 63.421 Q1182.31 67.4314 1189.72 67.4314 Q1194.01 67.4314 1198.02 66.3781 Q1202.08 65.3249 1206.05 63.2184 L1206.05 70.267 Q1202.03 71.9684 1197.82 72.8596 Q1193.61 73.7508 1189.27 73.7508 Q1178.42 73.7508 1172.06 67.4314 Q1165.74 61.1119 1165.74 50.3365 Q1165.74 39.1965 1171.73 32.6746 Q1177.77 26.1121 1187.98 26.1121 Q1197.13 26.1121 1202.44 32.0264 Q1207.79 37.9003 1207.79 48.0275 M1200.33 45.84 Q1200.25 39.7232 1196.89 36.0774 Q1193.57 32.4315 1188.06 32.4315 Q1181.82 32.4315 1178.05 35.9558 Q1174.33 39.4801 1173.76 45.8805 L1200.33 45.84 Z" fill="#000000" fill-rule="nonzero" fill-opacity="1"></path><path clip-path="url(#clip280)" d="M1248.94 28.5427 L1248.94 35.5912 Q1245.78 33.9709 1242.38 33.1607 Q1238.98 32.3505 1235.33 32.3505 Q1229.78 32.3505 1226.99 34.0519 Q1224.23 35.7533 1224.23 39.156 Q1224.23 41.7486 1226.22 43.2475 Q1228.2 44.7058 1234.2 46.0426 L1236.75 46.6097 Q1244.69 48.3111 1248.01 51.4303 Q1251.37 54.509 1251.37 60.0587 Q1251.37 66.3781 1246.35 70.0644 Q1241.37 73.7508 1232.62 73.7508 Q1228.97 73.7508 1225 73.0216 Q1221.07 72.3329 1216.7 70.9151 L1216.7 63.2184 Q1220.83 65.3654 1224.84 66.4591 Q1228.85 67.5124 1232.78 67.5124 Q1238.05 67.5124 1240.88 65.73 Q1243.72 63.9071 1243.72 60.6258 Q1243.72 57.5877 1241.65 55.9673 Q1239.63 54.3469 1232.7 52.8481 L1230.11 52.2405 Q1223.18 50.7821 1220.1 47.7845 Q1217.02 44.7463 1217.02 39.4801 Q1217.02 33.0797 1221.56 29.5959 Q1226.1 26.1121 1234.44 26.1121 Q1238.57 26.1121 1242.22 26.7198 Q1245.87 27.3274 1248.94 28.5427 Z" fill="#000000" fill-rule="nonzero" fill-opacity="1"></path><path clip-path="url(#clip280)" d="M1263.24 27.2059 L1270.7 27.2059 L1270.7 72.576 L1263.24 72.576 L1263.24 27.2059 M1263.24 9.54393 L1270.7 9.54393 L1270.7 18.9825 L1263.24 18.9825 L1263.24 9.54393 Z" fill="#000000" fill-rule="nonzero" fill-opacity="1"></path><path clip-path="url(#clip280)" d="M1316.15 34.0924 L1316.15 9.54393 L1323.6 9.54393 L1323.6 72.576 L1316.15 72.576 L1316.15 65.7705 Q1313.8 69.8214 1310.19 71.8063 Q1306.63 73.7508 1301.61 73.7508 Q1293.38 73.7508 1288.2 67.1883 Q1283.05 60.6258 1283.05 49.9314 Q1283.05 39.2371 1288.2 32.6746 Q1293.38 26.1121 1301.61 26.1121 Q1306.63 26.1121 1310.19 28.0971 Q1313.8 30.0415 1316.15 34.0924 M1290.75 49.9314 Q1290.75 58.1548 1294.11 62.8538 Q1297.51 67.5124 1303.43 67.5124 Q1309.34 67.5124 1312.75 62.8538 Q1316.15 58.1548 1316.15 49.9314 Q1316.15 41.7081 1312.75 37.0496 Q1309.34 32.3505 1303.43 32.3505 Q1297.51 32.3505 1294.11 37.0496 Q1290.75 41.7081 1290.75 49.9314 Z" fill="#000000" fill-rule="nonzero" fill-opacity="1"></path><path clip-path="url(#clip280)" d="M1338.19 54.671 L1338.19 27.2059 L1345.64 27.2059 L1345.64 54.3874 Q1345.64 60.8284 1348.15 64.0691 Q1350.66 67.2693 1355.69 67.2693 Q1361.72 67.2693 1365.21 63.421 Q1368.73 59.5726 1368.73 52.9291 L1368.73 27.2059 L1376.18 27.2059 L1376.18 72.576 L1368.73 72.576 L1368.73 65.6084 Q1366.02 69.7404 1362.41 71.7658 Q1358.85 73.7508 1354.11 73.7508 Q1346.29 73.7508 1342.24 68.8897 Q1338.19 64.0286 1338.19 54.671 M1356.94 26.1121 L1356.94 26.1121 Z" fill="#000000" fill-rule="nonzero" fill-opacity="1"></path><path clip-path="url(#clip280)" d="M1412.16 49.7694 Q1403.12 49.7694 1399.64 51.8354 Q1396.15 53.9013 1396.15 58.8839 Q1396.15 62.8538 1398.75 65.2034 Q1401.38 67.5124 1405.88 67.5124 Q1412.07 67.5124 1415.8 63.1374 Q1419.57 58.7219 1419.57 51.4303 L1419.57 49.7694 L1412.16 49.7694 M1427.02 46.6907 L1427.02 72.576 L1419.57 72.576 L1419.57 65.6895 Q1417.02 69.8214 1413.21 71.8063 Q1409.4 73.7508 1403.89 73.7508 Q1396.92 73.7508 1392.79 69.8619 Q1388.7 65.9325 1388.7 59.3701 Q1388.7 51.7138 1393.8 47.825 Q1398.95 43.9361 1409.12 43.9361 L1419.57 43.9361 L1419.57 43.2069 Q1419.57 38.0623 1416.17 35.2672 Q1412.8 32.4315 1406.69 32.4315 Q1402.8 32.4315 1399.11 33.3632 Q1395.43 34.295 1392.02 36.1584 L1392.02 29.2718 Q1396.11 27.692 1399.96 26.9223 Q1403.81 26.1121 1407.46 26.1121 Q1417.3 26.1121 1422.16 31.2163 Q1427.02 36.3204 1427.02 46.6907 Z" fill="#000000" fill-rule="nonzero" fill-opacity="1"></path><path clip-path="url(#clip280)" d="M1442.38 9.54393 L1449.83 9.54393 L1449.83 72.576 L1442.38 72.576 L1442.38 9.54393 Z" fill="#000000" fill-rule="nonzero" fill-opacity="1"></path><polyline clip-path="url(#clip282)" style="stroke:#009af9; stroke-linecap:round; stroke-linejoin:round; stroke-width:4; stroke-opacity:1; fill:none" points="273.033,160.256 283.18,161.17 293.326,162.08 303.473,162.988 313.619,163.895 323.766,164.801 333.912,165.708 344.059,166.613 354.205,167.519 364.352,168.424 374.498,169.329 384.645,170.235 394.791,171.14 404.937,172.044 415.084,172.949 425.23,173.854 435.377,174.758 445.523,175.663 455.67,176.568 465.816,177.472 475.963,178.376 486.109,179.281 496.256,180.185 506.402,181.089 516.549,181.994 526.695,182.898 536.842,183.802 546.988,184.706 557.135,185.61 567.281,186.514 577.428,187.418 587.574,188.322 597.72,189.226 607.867,190.13 618.013,191.034 628.16,191.938 638.306,192.842 648.453,193.746 658.599,194.65 668.746,195.554 678.892,196.458 689.039,197.362 699.185,198.266 709.332,199.17 719.478,200.074 729.625,200.977 739.771,201.881 749.918,202.785 760.064,203.689 770.211,204.593 780.357,205.496 790.503,206.4 800.65,207.304 810.796,208.208 820.943,209.112 831.089,210.015 841.236,210.919 851.382,211.823 861.529,212.727 871.675,213.63 881.822,214.534 891.968,215.438 902.115,216.342 912.261,217.245 922.408,218.149 932.554,219.053 942.701,219.956 952.847,220.86 962.994,221.764 973.14,222.667 983.286,223.571 993.433,224.475 1003.58,225.378 1013.73,226.282 1023.87,227.186 1034.02,228.09 1044.17,228.993 1054.31,229.897 1064.46,230.801 1074.6,231.704 1084.75,232.608 1094.9,233.511 1105.04,234.415 1115.19,235.319 1125.34,236.222 1135.48,237.126 1145.63,238.03 1155.78,238.933 1165.92,239.837 1176.07,240.741 1186.22,241.644 1196.36,242.548 1206.51,243.452 1216.66,244.355 1226.8,245.259 1236.95,246.163 1247.09,247.066 1257.24,247.97 1267.39,248.873 1277.53,249.777 1287.68,250.681 1297.83,251.584 1307.97,252.488 1318.12,253.392 1328.27,254.295 1338.41,255.199 1348.56,256.102 1358.71,257.006 1368.85,257.91 1379,258.813 1389.15,259.717 1399.29,260.621 1409.44,261.524 1419.58,262.428 1429.73,263.331 1439.88,264.235 1450.02,265.139 1460.17,266.042 1470.32,266.946 1480.46,267.85 1490.61,268.753 1500.76,269.657 1510.9,270.56 1521.05,271.464 1531.2,272.368 1541.34,273.271 1551.49,274.175 1561.64,275.078 1571.78,275.982 1581.93,276.886 1592.07,277.789 1602.22,278.693 1612.37,279.596 1622.51,280.5 1632.66,281.404 1642.81,282.307 1652.95,283.211 1663.1,284.115 1673.25,285.018 1683.39,285.922 1693.54,286.825 1703.69,287.729 1713.83,288.633 1723.98,289.536 1734.13,290.44 1744.27,291.343 1754.42,292.247 1764.56,293.151 1774.71,294.054 1784.86,294.958 1795,295.861 1805.15,296.765 1815.3,297.669 1825.44,298.572 1835.59,299.476 1845.74,300.38 1855.88,301.283 1866.03,302.187 1876.18,303.09 1886.32,303.994 1896.47,304.898 1906.62,305.801 1916.76,306.705 1926.91,307.608 1937.05,308.512 1947.2,309.416 1957.35,310.319 1967.49,311.223 1977.64,312.126 1987.79,313.03 1997.93,313.934 2008.08,314.837 2018.23,315.741 2028.37,316.644 2038.52,317.548 2048.67,318.452 2058.81,319.355 2068.96,320.259 2079.11,321.163 2089.25,322.066 2099.4,322.97 2109.54,323.873 2119.69,324.777 2129.84,325.681 2139.98,326.584 2150.13,327.488 2160.28,328.391 2170.42,329.295 2180.57,330.199 2190.72,331.102 2200.86,332.006 2211.01,332.909 2221.16,333.813 2231.3,334.717 2241.45,335.62 2251.6,336.524 2261.74,337.427 2271.89,338.331 2282.03,339.235 2292.18,340.138 "></polyline>
<polyline clip-path="url(#clip282)" style="stroke:#e26f46; stroke-linecap:round; stroke-linejoin:round; stroke-width:4; stroke-opacity:1; fill:none" points="273.033,865.964 283.18,876.697 293.326,886.294 303.473,895.649 313.619,905.18 323.766,915.147 333.912,925.781 344.059,937.343 354.205,950.177 364.352,964.797 374.498,982.043 384.645,1003.48 394.791,1032.58 404.937,1080.38 415.084,1386.4 425.23,1086.55 435.377,1042.93 445.523,1018.46 455.67,1001.79 465.816,989.381 475.963,979.651 486.109,971.766 496.256,965.228 506.402,959.715 516.549,955.008 526.695,950.95 536.842,947.426 546.988,944.349 557.135,941.65 567.281,939.277 577.428,937.184 587.574,935.339 597.72,933.71 607.867,932.273 618.013,931.008 628.16,929.897 638.306,928.925 648.453,928.079 658.599,927.346 668.746,926.718 678.892,926.185 689.039,925.74 699.185,925.375 709.332,925.084 719.478,924.862 729.625,924.703 739.771,924.604 749.918,924.559 760.064,924.566 770.211,924.62 780.357,924.719 790.503,924.86 800.65,925.04 810.796,925.257 820.943,925.508 831.089,925.791 841.236,926.106 851.382,926.449 861.529,926.819 871.675,927.215 881.822,927.635 891.968,928.078 902.115,928.542 912.261,929.027 922.408,929.532 932.554,930.054 942.701,930.595 952.847,931.152 962.994,931.724 973.14,932.312 983.286,932.914 993.433,933.529 1003.58,934.157 1013.73,934.797 1023.87,935.449 1034.02,936.112 1044.17,936.786 1054.31,937.47 1064.46,938.163 1074.6,938.865 1084.75,939.576 1094.9,940.296 1105.04,941.023 1115.19,941.758 1125.34,942.5 1135.48,943.249 1145.63,944.004 1155.78,944.766 1165.92,945.534 1176.07,946.308 1186.22,947.087 1196.36,947.871 1206.51,948.66 1216.66,949.455 1226.8,950.253 1236.95,951.056 1247.09,951.864 1257.24,952.675 1267.39,953.49 1277.53,954.309 1287.68,955.132 1297.83,955.957 1307.97,956.786 1318.12,957.619 1328.27,958.454 1338.41,959.292 1348.56,960.132 1358.71,960.975 1368.85,961.821 1379,962.669 1389.15,963.52 1399.29,964.372 1409.44,965.227 1419.58,966.084 1429.73,966.942 1439.88,967.803 1450.02,968.665 1460.17,969.529 1470.32,970.394 1480.46,971.261 1490.61,972.13 1500.76,973 1510.9,973.871 1521.05,974.744 1531.2,975.618 1541.34,976.493 1551.49,977.37 1561.64,978.247 1571.78,979.126 1581.93,980.005 1592.07,980.886 1602.22,981.767 1612.37,982.65 1622.51,983.533 1632.66,984.417 1642.81,985.302 1652.95,986.187 1663.1,987.074 1673.25,987.961 1683.39,988.848 1693.54,989.737 1703.69,990.626 1713.83,991.515 1723.98,992.405 1734.13,993.296 1744.27,994.187 1754.42,995.079 1764.56,995.971 1774.71,996.864 1784.86,997.757 1795,998.651 1805.15,999.545 1815.3,1000.44 1825.44,1001.33 1835.59,1002.23 1845.74,1003.12 1855.88,1004.02 1866.03,1004.92 1876.18,1005.81 1886.32,1006.71 1896.47,1007.61 1906.62,1008.5 1916.76,1009.4 1926.91,1010.3 1937.05,1011.2 1947.2,1012.09 1957.35,1012.99 1967.49,1013.89 1977.64,1014.79 1987.79,1015.69 1997.93,1016.59 2008.08,1017.49 2018.23,1018.39 2028.37,1019.29 2038.52,1020.19 2048.67,1021.09 2058.81,1021.99 2068.96,1022.89 2079.11,1023.79 2089.25,1024.69 2099.4,1025.59 2109.54,1026.49 2119.69,1027.39 2129.84,1028.29 2139.98,1029.19 2150.13,1030.09 2160.28,1031 2170.42,1031.9 2180.57,1032.8 2190.72,1033.7 2200.86,1034.6 2211.01,1035.5 2221.16,1036.41 2231.3,1037.31 2241.45,1038.21 2251.6,1039.11 2261.74,1040.01 2271.89,1040.92 2282.03,1041.82 2292.18,1042.72 "></polyline>
<polyline clip-path="url(#clip282)" style="stroke:#3da44d; stroke-linecap:round; stroke-linejoin:round; stroke-width:4; stroke-opacity:1; fill:none" points="273.033,162.946 283.18,166.595 293.326,170.231 303.473,173.863 313.619,177.492 323.766,181.118 333.912,184.744 344.059,188.368 354.205,191.991 364.352,195.614 374.498,199.236 384.645,202.857 394.791,206.478 404.937,210.099 415.084,213.719 425.23,217.338 435.377,220.957 445.523,224.576 455.67,228.195 465.816,231.813 475.963,235.431 486.109,239.048 496.256,242.666 506.402,246.283 516.549,249.9 526.695,253.516 536.842,257.132 546.988,260.748 557.135,264.364 567.281,267.98 577.428,271.595 587.574,275.21 597.72,278.824 607.867,282.439 618.013,286.053 628.16,289.666 638.306,293.28 648.453,296.893 658.599,300.506 668.746,304.118 678.892,307.73 689.039,311.342 699.185,314.953 709.332,318.564 719.478,322.175 729.625,325.785 739.771,329.395 749.918,333.004 760.064,336.613 770.211,340.222 780.357,343.83 790.503,347.437 800.65,351.044 810.796,354.651 820.943,358.256 831.089,361.862 841.236,365.466 851.382,369.07 861.529,372.674 871.675,376.276 881.822,379.878 891.968,383.48 902.115,387.08 912.261,390.68 922.408,394.278 932.554,397.876 942.701,401.473 952.847,405.07 962.994,408.665 973.14,412.259 983.286,415.852 993.433,419.444 1003.58,423.034 1013.73,426.624 1023.87,430.212 1034.02,433.799 1044.17,437.385 1054.31,440.969 1064.46,444.552 1074.6,448.134 1084.75,451.713 1094.9,455.291 1105.04,458.868 1115.19,462.442 1125.34,466.015 1135.48,469.586 1145.63,473.155 1155.78,476.721 1165.92,480.286 1176.07,483.848 1186.22,487.408 1196.36,490.966 1206.51,494.521 1216.66,498.073 1226.8,501.622 1236.95,505.169 1247.09,508.713 1257.24,512.253 1267.39,515.791 1277.53,519.325 1287.68,522.855 1297.83,526.382 1307.97,529.905 1318.12,533.425 1328.27,536.94 1338.41,540.451 1348.56,543.958 1358.71,547.46 1368.85,550.957 1379,554.45 1389.15,557.937 1399.29,561.419 1409.44,564.896 1419.58,568.367 1429.73,571.832 1439.88,575.291 1450.02,578.744 1460.17,582.19 1470.32,585.629 1480.46,589.061 1490.61,592.486 1500.76,595.904 1510.9,599.313 1521.05,602.714 1531.2,606.107 1541.34,609.492 1551.49,612.867 1561.64,616.233 1571.78,619.589 1581.93,622.936 1592.07,626.272 1602.22,629.597 1612.37,632.912 1622.51,636.215 1632.66,639.506 1642.81,642.785 1652.95,646.052 1663.1,649.306 1673.25,652.547 1683.39,655.774 1693.54,658.988 1703.69,662.186 1713.83,665.37 1723.98,668.539 1734.13,671.692 1744.27,674.828 1754.42,677.949 1764.56,681.052 1774.71,684.137 1784.86,687.205 1795,690.255 1805.15,693.285 1815.3,696.297 1825.44,699.289 1835.59,702.26 1845.74,705.211 1855.88,708.141 1866.03,711.05 1876.18,713.937 1886.32,716.802 1896.47,719.644 1906.62,722.462 1916.76,725.258 1926.91,728.029 1937.05,730.777 1947.2,733.5 1957.35,736.197 1967.49,738.87 1977.64,741.517 1987.79,744.138 1997.93,746.733 2008.08,749.302 2018.23,751.844 2028.37,754.359 2038.52,756.846 2048.67,759.307 2058.81,761.74 2068.96,764.146 2079.11,766.523 2089.25,768.873 2099.4,771.195 2109.54,773.49 2119.69,775.756 2129.84,777.994 2139.98,780.204 2150.13,782.386 2160.28,784.541 2170.42,786.667 2180.57,788.766 2190.72,790.838 2200.86,792.882 2211.01,794.899 2221.16,796.889 2231.3,798.852 2241.45,800.789 2251.6,802.699 2261.74,804.584 2271.89,806.443 2282.03,808.276 2292.18,810.085 "></polyline>
<path clip-path="url(#clip280)" d="M1972.36 1379.86 L2281.41 1379.86 L2281.41 1172.5 L1972.36 1172.5  Z" fill="#ffffff" fill-rule="evenodd" fill-opacity="1"></path>
<polyline clip-path="url(#clip280)" style="stroke:#000000; stroke-linecap:round; stroke-linejoin:round; stroke-width:4; stroke-opacity:1; fill:none" points="1972.36,1379.86 2281.41,1379.86 2281.41,1172.5 1972.36,1172.5 1972.36,1379.86 "></polyline>
<polyline clip-path="url(#clip280)" style="stroke:#009af9; stroke-linecap:round; stroke-linejoin:round; stroke-width:4; stroke-opacity:1; fill:none" points="1996.14,1224.34 2138.83,1224.34 "></polyline>
<path clip-path="url(#clip280)" d="M2162.61 1205.6 L2166.87 1205.6 L2166.87 1241.62 L2162.61 1241.62 L2162.61 1205.6 Z" fill="#000000" fill-rule="nonzero" fill-opacity="1"></path><path clip-path="url(#clip280)" d="M2185.83 1218.68 Q2182.4 1218.68 2180.41 1221.36 Q2178.42 1224.02 2178.42 1228.68 Q2178.42 1233.33 2180.39 1236.01 Q2182.38 1238.68 2185.83 1238.68 Q2189.23 1238.68 2191.22 1235.99 Q2193.21 1233.31 2193.21 1228.68 Q2193.21 1224.07 2191.22 1221.38 Q2189.23 1218.68 2185.83 1218.68 M2185.83 1215.07 Q2191.38 1215.07 2194.55 1218.68 Q2197.72 1222.29 2197.72 1228.68 Q2197.72 1235.04 2194.55 1238.68 Q2191.38 1242.29 2185.83 1242.29 Q2180.25 1242.29 2177.08 1238.68 Q2173.93 1235.04 2173.93 1228.68 Q2173.93 1222.29 2177.08 1218.68 Q2180.25 1215.07 2185.83 1215.07 Z" fill="#000000" fill-rule="nonzero" fill-opacity="1"></path><path clip-path="url(#clip280)" d="M2202.31 1215.69 L2206.57 1215.69 L2211.89 1235.92 L2217.19 1215.69 L2222.22 1215.69 L2227.54 1235.92 L2232.84 1215.69 L2237.1 1215.69 L2230.32 1241.62 L2225.29 1241.62 L2219.72 1220.37 L2214.11 1241.62 L2209.09 1241.62 L2202.31 1215.69 Z" fill="#000000" fill-rule="nonzero" fill-opacity="1"></path><polyline clip-path="url(#clip280)" style="stroke:#e26f46; stroke-linecap:round; stroke-linejoin:round; stroke-width:4; stroke-opacity:1; fill:none" points="1996.14,1276.18 2138.83,1276.18 "></polyline>
<path clip-path="url(#clip280)" d="M2182.96 1272.51 Q2184.55 1269.64 2186.78 1268.27 Q2189 1266.91 2192.01 1266.91 Q2196.06 1266.91 2198.26 1269.75 Q2200.46 1272.58 2200.46 1277.81 L2200.46 1293.46 L2196.17 1293.46 L2196.17 1277.95 Q2196.17 1274.22 2194.85 1272.41 Q2193.53 1270.61 2190.83 1270.61 Q2187.52 1270.61 2185.59 1272.81 Q2183.67 1275.01 2183.67 1278.8 L2183.67 1293.46 L2179.39 1293.46 L2179.39 1277.95 Q2179.39 1274.2 2178.07 1272.41 Q2176.75 1270.61 2174 1270.61 Q2170.73 1270.61 2168.81 1272.83 Q2166.89 1275.03 2166.89 1278.8 L2166.89 1293.46 L2162.61 1293.46 L2162.61 1267.53 L2166.89 1267.53 L2166.89 1271.56 Q2168.35 1269.17 2170.39 1268.04 Q2172.42 1266.91 2175.22 1266.91 Q2178.05 1266.91 2180.02 1268.34 Q2182.01 1269.78 2182.96 1272.51 Z" fill="#000000" fill-rule="nonzero" fill-opacity="1"></path><path clip-path="url(#clip280)" d="M2208.95 1267.53 L2213.21 1267.53 L2213.21 1293.46 L2208.95 1293.46 L2208.95 1267.53 M2208.95 1257.44 L2213.21 1257.44 L2213.21 1262.83 L2208.95 1262.83 L2208.95 1257.44 Z" fill="#000000" fill-rule="nonzero" fill-opacity="1"></path><path clip-path="url(#clip280)" d="M2239.18 1271.47 L2239.18 1257.44 L2243.44 1257.44 L2243.44 1293.46 L2239.18 1293.46 L2239.18 1289.57 Q2237.84 1291.88 2235.78 1293.02 Q2233.74 1294.13 2230.87 1294.13 Q2226.17 1294.13 2223.21 1290.38 Q2220.27 1286.63 2220.27 1280.52 Q2220.27 1274.41 2223.21 1270.66 Q2226.17 1266.91 2230.87 1266.91 Q2233.74 1266.91 2235.78 1268.04 Q2237.84 1269.15 2239.18 1271.47 M2224.67 1280.52 Q2224.67 1285.22 2226.59 1287.9 Q2228.53 1290.56 2231.91 1290.56 Q2235.29 1290.56 2237.24 1287.9 Q2239.18 1285.22 2239.18 1280.52 Q2239.18 1275.82 2237.24 1273.16 Q2235.29 1270.47 2231.91 1270.47 Q2228.53 1270.47 2226.59 1273.16 Q2224.67 1275.82 2224.67 1280.52 Z" fill="#000000" fill-rule="nonzero" fill-opacity="1"></path><polyline clip-path="url(#clip280)" style="stroke:#3da44d; stroke-linecap:round; stroke-linejoin:round; stroke-width:4; stroke-opacity:1; fill:none" points="1996.14,1328.02 2138.83,1328.02 "></polyline>
<path clip-path="url(#clip280)" d="M2184.32 1329.65 L2184.32 1345.3 L2180.06 1345.3 L2180.06 1329.79 Q2180.06 1326.11 2178.63 1324.28 Q2177.19 1322.45 2174.32 1322.45 Q2170.87 1322.45 2168.88 1324.65 Q2166.89 1326.85 2166.89 1330.64 L2166.89 1345.3 L2162.61 1345.3 L2162.61 1309.28 L2166.89 1309.28 L2166.89 1323.4 Q2168.42 1321.06 2170.48 1319.9 Q2172.56 1318.75 2175.27 1318.75 Q2179.74 1318.75 2182.03 1321.52 Q2184.32 1324.28 2184.32 1329.65 Z" fill="#000000" fill-rule="nonzero" fill-opacity="1"></path><path clip-path="url(#clip280)" d="M2192.82 1319.37 L2197.08 1319.37 L2197.08 1345.3 L2192.82 1345.3 L2192.82 1319.37 M2192.82 1309.28 L2197.08 1309.28 L2197.08 1314.67 L2192.82 1314.67 L2192.82 1309.28 Z" fill="#000000" fill-rule="nonzero" fill-opacity="1"></path><path clip-path="url(#clip280)" d="M2223.05 1332.03 Q2223.05 1327.4 2221.13 1324.86 Q2219.23 1322.31 2215.78 1322.31 Q2212.35 1322.31 2210.43 1324.86 Q2208.53 1327.4 2208.53 1332.03 Q2208.53 1336.64 2210.43 1339.19 Q2212.35 1341.73 2215.78 1341.73 Q2219.23 1341.73 2221.13 1339.19 Q2223.05 1336.64 2223.05 1332.03 M2227.31 1342.08 Q2227.31 1348.7 2224.37 1351.92 Q2221.43 1355.16 2215.36 1355.16 Q2213.12 1355.16 2211.13 1354.81 Q2209.14 1354.49 2207.26 1353.79 L2207.26 1349.65 Q2209.14 1350.67 2210.97 1351.15 Q2212.79 1351.64 2214.69 1351.64 Q2218.88 1351.64 2220.97 1349.44 Q2223.05 1347.26 2223.05 1342.84 L2223.05 1340.74 Q2221.73 1343.03 2219.67 1344.16 Q2217.61 1345.3 2214.74 1345.3 Q2209.97 1345.3 2207.05 1341.66 Q2204.14 1338.03 2204.14 1332.03 Q2204.14 1326.01 2207.05 1322.38 Q2209.97 1318.75 2214.74 1318.75 Q2217.61 1318.75 2219.67 1319.88 Q2221.73 1321.01 2223.05 1323.31 L2223.05 1319.37 L2227.31 1319.37 L2227.31 1342.08 Z" fill="#000000" fill-rule="nonzero" fill-opacity="1"></path><path clip-path="url(#clip280)" d="M2257.63 1329.65 L2257.63 1345.3 L2253.37 1345.3 L2253.37 1329.79 Q2253.37 1326.11 2251.94 1324.28 Q2250.5 1322.45 2247.63 1322.45 Q2244.18 1322.45 2242.19 1324.65 Q2240.2 1326.85 2240.2 1330.64 L2240.2 1345.3 L2235.92 1345.3 L2235.92 1309.28 L2240.2 1309.28 L2240.2 1323.4 Q2241.73 1321.06 2243.79 1319.9 Q2245.87 1318.75 2248.58 1318.75 Q2253.05 1318.75 2255.34 1321.52 Q2257.63 1324.28 2257.63 1329.65 Z" fill="#000000" fill-rule="nonzero" fill-opacity="1"></path></svg>